<svg width="31" height="33" viewBox="0 0 31 33" fill="none" xmlns="http://www.w3.org/2000/svg">
<path d="M20.4242 10.8387C19.5272 10.4311 18.5801 10.1419 17.6073 9.97852C17.4741 10.2146 17.3535 10.4576 17.2461 10.7063C16.2097 10.5513 15.1557 10.5513 14.1193 10.7063C14.0121 10.4576 13.8917 10.2147 13.7587 9.97852C12.7852 10.1433 11.8375 10.4332 10.9395 10.841C9.34877 13.0754 8.62931 15.8068 8.91469 18.5279C9.95889 19.2935 11.1276 19.8757 12.3701 20.2493C12.6493 19.8758 12.8964 19.4796 13.1087 19.0649C12.7048 18.9152 12.3149 18.7305 11.9437 18.5129C12.0415 18.4424 12.1371 18.3701 12.2291 18.2996C13.3097 18.8039 14.4892 19.0653 15.6833 19.0653C16.8774 19.0653 18.0569 18.8039 19.1375 18.2996C19.2307 18.3753 19.3268 18.4476 19.4229 18.5129C19.0516 18.7307 18.6618 18.9158 18.2579 19.0661C18.4703 19.4806 18.7178 19.8764 18.9977 20.2493C20.2413 19.8773 21.411 19.2954 22.4554 18.5291C22.7404 15.806 22.0186 13.0729 20.4242 10.8387ZM13.4162 16.9805C13.0732 16.9609 12.7517 16.8079 12.5215 16.5547C12.2913 16.3015 12.171 15.9685 12.1866 15.6278C12.1771 15.4586 12.2013 15.2892 12.2579 15.1294C12.3144 14.9695 12.4023 14.8223 12.5163 14.6961C12.6303 14.57 12.7683 14.4674 12.9223 14.3943C13.0763 14.3212 13.2434 14.2789 13.4139 14.27C13.5849 14.2778 13.7527 14.3193 13.9075 14.392C14.0623 14.4647 14.2009 14.5672 14.3154 14.6935C14.4299 14.8198 14.518 14.9675 14.5745 15.1279C14.6311 15.2883 14.6549 15.4582 14.6447 15.6278C14.6608 15.9684 14.5407 16.3015 14.3107 16.5548C14.0807 16.8081 13.7593 16.961 13.4162 16.9805ZM17.9533 16.9805C17.6103 16.961 17.2888 16.8081 17.0588 16.5548C16.8288 16.3015 16.7088 15.9684 16.7248 15.6278C16.7153 15.4585 16.7396 15.2891 16.7962 15.1291C16.8529 14.9692 16.9408 14.8219 17.0549 14.6957C17.169 14.5696 17.3072 14.467 17.4613 14.394C17.6155 14.3209 17.7827 14.2788 17.9533 14.27C18.1242 14.2778 18.2919 14.3193 18.4465 14.392C18.6011 14.4647 18.7396 14.5673 18.8539 14.6937C18.9681 14.82 19.0559 14.9677 19.1121 15.1281C19.1683 15.2885 19.1918 15.4583 19.1812 15.6278C19.1974 15.9684 19.0774 16.3017 18.8474 16.555C18.6173 16.8083 18.2958 16.9612 17.9527 16.9805H17.9533Z" fill="white"/>
<path d="M18 1.21875H13C6.37258 1.21875 1 6.59132 1 13.2187V17.9167C1 24.5441 6.37258 29.9167 13 29.9167H21.2396L20.0312 27.1979L30 32.3333V13.2187C30 6.59133 24.6274 1.21875 18 1.21875Z" stroke="white" stroke-width="0.5"/>
</svg>
