<svg width="25" height="19" viewBox="0 0 25 19" fill="none" xmlns="http://www.w3.org/2000/svg">
<path d="M11.2528 15.0457C11.6434 15.0457 11.9949 15.3581 11.9949 15.7877C11.9949 16.1783 11.6824 16.5297 11.2528 16.5297C10.8623 16.5297 10.5108 16.2173 10.5108 15.7877C10.5108 15.3581 10.8623 15.0457 11.2528 15.0457ZM22.7348 10.5154C22.3443 10.5154 21.9928 10.2029 21.9928 9.77332C21.9928 9.38278 22.3052 9.03129 22.7348 9.03129C23.1254 9.03129 23.4769 9.34372 23.4769 9.77332C23.4769 10.1639 23.1254 10.5154 22.7348 10.5154ZM22.7348 7.50816C21.4851 7.50816 20.4697 8.52358 20.4697 9.77332C20.4697 10.0076 20.5087 10.242 20.5868 10.4763L13.1274 14.4599C12.6978 13.835 11.9949 13.4835 11.2528 13.4835C10.3936 13.4835 9.61254 13.9912 9.22199 14.7332L2.50463 11.2183C1.80165 10.8278 1.25488 9.69521 1.33299 8.60169C1.37205 8.05492 1.56732 7.62532 1.8407 7.46911C2.03597 7.35194 2.23124 7.391 2.50463 7.50816L2.54368 7.54722C4.34019 8.48452 10.1593 11.5308 10.3936 11.6479C10.7842 11.8042 10.9794 11.8823 11.6434 11.5698L23.6721 5.32111C23.8674 5.243 24.0627 5.08678 24.0627 4.8134C24.0627 4.46191 23.7112 4.30569 23.7112 4.30569C23.0082 3.99326 21.9538 3.48555 20.9383 3.0169C18.7513 2.00148 16.2518 0.829847 15.1583 0.24403C14.221 -0.263678 13.4399 0.165921 13.3227 0.24403L13.0493 0.361193C8.08942 2.86068 1.52826 6.1022 1.13772 6.33653C0.473794 6.72707 0.0441944 7.54722 0.00513992 8.56263C-0.072969 10.1639 0.747175 11.8432 1.91881 12.429L9.02672 16.1001C9.18294 17.1937 10.1593 18.0529 11.2528 18.0529C12.5026 18.0529 13.4789 17.0765 13.518 15.8268L21.3289 11.6089C21.7194 11.9213 22.2271 12.0775 22.7348 12.0775C23.9846 12.0775 25 11.0621 25 9.81238C25 8.52358 23.9846 7.50816 22.7348 7.50816Z" fill="white"/>
</svg>
