<svg width="21" height="21" viewBox="0 0 21 21" fill="none" xmlns="http://www.w3.org/2000/svg">
<path fill-rule="evenodd" clip-rule="evenodd" d="M10.4952 1.77001e-07C8.00236 0.00180857 5.59145 0.883451 3.69351 2.48729C1.79558 4.09113 0.53438 6.3126 0.135411 8.75449C-0.263559 11.1964 0.225716 13.6995 1.51575 15.8163C2.80579 17.9331 4.81248 19.5255 7.17703 20.3088C7.70178 20.4043 7.89331 20.0823 7.89331 19.8063C7.89331 19.559 7.88457 18.9037 7.87932 18.0341C4.95909 18.6633 4.34164 16.6368 4.34164 16.6368C4.1485 16.0069 3.73508 15.4661 3.17582 15.1119C2.22253 14.4653 3.24841 14.4783 3.24841 14.4783C3.58124 14.524 3.89915 14.6446 4.17788 14.8308C4.45661 15.017 4.68881 15.264 4.85677 15.5528C4.99889 15.8099 5.19098 16.0366 5.42192 16.2196C5.65286 16.4027 5.91808 16.5385 6.20224 16.6192C6.4864 16.6999 6.78386 16.7239 7.07743 16.6898C7.371 16.6558 7.65484 16.5643 7.91256 16.4207C7.96023 15.8923 8.19658 15.3983 8.57899 15.0277C6.24735 14.7673 3.7959 13.8708 3.7959 9.87669C3.78072 8.84135 4.16782 7.83996 4.87688 7.08032C4.55608 6.18143 4.59299 5.19494 4.98008 4.32214C4.98008 4.32214 5.86166 4.04181 7.8662 5.39052C9.58722 4.92309 11.4032 4.92309 13.1242 5.39052C15.1287 4.04181 16.0103 4.32214 16.0103 4.32214C16.3989 5.19455 16.4362 6.18151 16.1144 7.08032C16.8237 7.83976 17.2105 8.84136 17.1945 9.87669C17.1945 13.8803 14.7387 14.7612 12.3983 15.019C12.6493 15.2715 12.843 15.5744 12.9664 15.9073C13.0898 16.2402 13.14 16.5954 13.1137 16.9492C13.1137 18.3378 13.1006 19.4661 13.1006 19.8072C13.1006 20.0858 13.2904 20.4147 13.823 20.3088C16.1883 19.5252 18.1955 17.932 19.4855 15.8142C20.7755 13.6965 21.264 11.1923 20.8638 8.74979C20.4636 6.30726 19.2007 4.08573 17.301 2.48266C15.4013 0.879578 12.9889 -0.000455666 10.4952 1.77001e-07" fill="white"/>
</svg>
