<svg width="25" height="15" viewBox="0 0 25 15" fill="none" xmlns="http://www.w3.org/2000/svg">
<path d="M7.0835 14.0588C10.9956 14.0588 14.167 10.9116 14.167 7.02939C14.167 3.14717 10.9956 0 7.0835 0C3.17139 0 0 3.14717 0 7.02939C0 10.9116 3.17139 14.0588 7.0835 14.0588Z" fill="white"/>
<path d="M18.4272 13.356C20.5789 13.356 22.3231 10.5236 22.3231 7.02958C22.3231 3.53558 20.5789 0.703125 18.4272 0.703125C16.2755 0.703125 14.5312 3.53558 14.5312 7.02958C14.5312 10.5236 16.2755 13.356 18.4272 13.356Z" fill="white"/>
<path d="M23.3753 12.6523C23.7665 12.6523 24.0837 10.1346 24.0837 7.02879C24.0837 3.92301 23.7665 1.40527 23.3753 1.40527C22.9841 1.40527 22.667 3.92301 22.667 7.02879C22.667 10.1346 22.9841 12.6523 23.3753 12.6523Z" fill="white"/>
</svg>
