<?xml version="1.0" encoding="utf-8"?>
<!-- Generator: Adobe Illustrator 26.0.3, SVG Export Plug-In . SVG Version: 6.00 Build 0)  -->
<svg version="1.1" id="Layer_1" xmlns="http://www.w3.org/2000/svg" xmlns:xlink="http://www.w3.org/1999/xlink" x="0px" y="0px"
	 viewBox="0 0 66 66" style="enable-background:new 0 0 66 66;" xml:space="preserve">
<style type="text/css">
	.st0{fill:#FFFFFF;}
	.st1{fill:none;stroke:#22222E;stroke-width:2;}
</style>
<g>
	<path shape-rendering="crispEdges" d="M8.6,33L8.6,33c0-13.4,10.9-24.3,24.3-24.3h0.2c13.4,0,24.3,10.9,24.3,24.3l0,0
		c0,13.4-10.9,24.3-24.3,24.3h-0.2C19.5,57.3,8.6,46.4,8.6,33z"/>
	<path class="st0" d="M41.4,35v0.9H26.7l4.8,4.8l-0.6,0.6L24.6,35H41.4z"/>
	<path class="st0" d="M41.4,31H24.6v-0.9h14.7l-4.8-4.8l0.6-0.6L41.4,31z"/>
	<path shape-rendering="crispEdges" class="st1" d="M9.6,33L9.6,33C9.6,20.1,20,9.7,32.9,9.7h0.2C46,9.7,56.4,20.1,56.4,33l0,0
		c0,12.9-10.4,23.3-23.3,23.3h-0.2C20,56.3,9.6,45.9,9.6,33z"/>
</g>
</svg>
