<svg width="20" height="17" viewBox="0 0 20 17" fill="none" xmlns="http://www.w3.org/2000/svg">
<path d="M19.9602 0.356582C19.9442 0.280405 19.9088 0.209985 19.8577 0.152522C19.8066 0.0950579 19.7417 0.0526099 19.6695 0.0295151C19.4069 -0.0242318 19.1351 -0.00432006 18.8826 0.0871715C18.8826 0.0871715 1.3579 6.58658 0.357481 7.30047C0.141943 7.45561 0.0697653 7.54576 0.0341812 7.65059C-0.138656 8.16321 0.400189 8.3844 0.400189 8.3844L4.91632 9.90232C4.99255 9.91632 5.0709 9.91166 5.14506 9.8887C6.17293 9.21884 15.4827 3.15762 16.0236 2.95425C16.108 2.92804 16.1711 2.95425 16.1548 3.01819C15.9392 3.79603 7.85352 11.2074 7.85352 11.2074C7.83354 11.2339 7.81682 11.2627 7.80371 11.2934L7.79353 11.2871L7.37161 15.9069C7.37161 15.9069 7.19572 17.3221 8.56723 15.9069C9.53512 14.9079 10.4725 14.0735 10.9412 13.6667C12.4947 14.7727 14.1661 15.996 14.887 16.6355C15.0079 16.7564 15.1513 16.851 15.3085 16.9135C15.4658 16.976 15.6336 17.0051 15.802 16.9993C16.4862 16.9731 16.6774 16.1973 16.6774 16.1973C16.6774 16.1973 19.8708 2.94691 19.9724 1.17215C19.9826 0.998137 19.9968 0.887018 19.9989 0.767513C20.0042 0.629304 19.9908 0.491006 19.9592 0.356582" fill="white"/>
</svg>
