<svg width="22" height="17" viewBox="0 0 22 17" fill="none" xmlns="http://www.w3.org/2000/svg">
<path d="M6.91918 16.9997C8.60891 17.0107 10.2841 16.7023 11.8474 16.0926C13.4107 15.4829 14.8311 14.5839 16.0259 13.4479C17.2207 12.3119 18.1661 10.9616 18.8074 9.47526C19.4486 7.98896 19.7728 6.39635 19.7612 4.78992C19.7612 4.60415 19.7569 4.41926 19.7483 4.23525C20.6316 3.62739 21.3941 2.87493 22 2.01305C21.1764 2.36018 20.3028 2.58791 19.4082 2.68865C20.3509 2.15246 21.0564 1.30883 21.3935 0.314864C20.5071 0.814898 19.5374 1.16726 18.5261 1.35674C17.8461 0.667319 16.9459 0.210456 15.965 0.0569903C14.9841 -0.0964749 13.9773 0.0620333 13.1008 0.507935C12.2243 0.953837 11.527 1.66222 11.1171 2.52323C10.7072 3.38424 10.6076 4.34978 10.8336 5.27011C9.03906 5.18484 7.28342 4.74165 5.68074 3.96933C4.07806 3.197 2.66418 2.11281 1.53094 0.787167C0.953343 1.73185 0.77632 2.85035 1.03594 3.91479C1.29555 4.97924 1.97228 5.90953 2.92823 6.51615C2.2114 6.49517 1.51034 6.31096 0.883908 5.979C0.883908 5.99653 0.883908 6.01493 0.883908 6.03421C0.884509 7.02484 1.2454 7.98479 1.9054 8.75136C2.56541 9.51793 3.48393 10.0439 4.50526 10.2403C3.84079 10.4124 3.14368 10.4376 2.46738 10.3139C2.75561 11.1665 3.31709 11.9122 4.07321 12.4464C4.82933 12.9806 5.74225 13.2767 6.68415 13.2931C5.08575 14.4873 3.11125 15.1354 1.07839 15.1333C0.717968 15.133 0.35788 15.1125 0 15.0719C2.06391 16.3327 4.46595 17.0019 6.91918 16.9997Z" fill="white"/>
</svg>
