<svg width="21" height="14" viewBox="0 0 21 14" fill="none" xmlns="http://www.w3.org/2000/svg">
<path d="M10.9652 13.9817L6.65686 13.9057C5.2619 13.8793 3.86346 13.9321 2.49586 13.6579C0.41541 13.2483 0.268023 11.2399 0.113799 9.55526C-0.0987062 7.18684 -0.0164391 4.77543 0.384586 2.42677C0.610977 1.10893 1.50192 0.322568 2.87973 0.236997C7.53086 -0.0735544 12.2129 -0.0367508 16.8537 0.108133C17.3439 0.121414 17.8374 0.194008 18.3207 0.276639C20.7063 0.679657 20.7645 2.95561 20.9191 4.87154C21.0733 6.80724 21.0082 8.75288 20.7134 10.6754C20.477 12.2672 20.0245 13.6021 18.115 13.7309C15.7225 13.8994 13.385 14.0351 10.9858 13.9919C10.9859 13.9817 10.9721 13.9817 10.9652 13.9817ZM8.43233 9.95169C10.2353 8.95403 12.0038 7.973 13.7964 6.98204C11.9901 5.98438 10.2249 5.00335 8.43233 4.01238V9.95169Z" fill="white"/>
</svg>
