<?xml version="1.0" standalone="no"?>
<!DOCTYPE svg PUBLIC "-//W3C//DTD SVG 20010904//EN"
 "http://www.w3.org/TR/2001/REC-SVG-20010904/DTD/svg10.dtd">
<svg version="1.0" xmlns="http://www.w3.org/2000/svg"
 width="700.000000pt" height="700.000000pt" viewBox="0 0 700.000000 700.000000"
 preserveAspectRatio="xMidYMid meet">
<metadata>
Created by potrace 1.14, written by Peter Selinger 2001-2017
</metadata>
<g transform="translate(0.000000,700.000000) scale(0.100000,-0.100000)"
fill="#000000" stroke="none">
<path d="M3279 6995 c-2 -1 -44 -6 -92 -10 -48 -3 -96 -8 -105 -10 -9 -1 -39
-6 -67 -9 -27 -4 -72 -11 -100 -16 -27 -5 -61 -12 -75 -14 -150 -26 -358 -83
-515 -141 -55 -21 -120 -44 -145 -53 -77 -27 -410 -198 -516 -264 -634 -398
-1104 -948 -1392 -1628 -63 -148 -159 -442 -177 -539 -3 -14 -7 -36 -10 -48
-12 -54 -15 -71 -26 -128 -15 -88 -18 -103 -25 -154 -3 -25 -8 -57 -10 -71
-13 -80 -19 -221 -19 -420 1 -250 10 -368 45 -570 5 -30 12 -71 15 -90 3 -19
8 -43 11 -52 3 -9 7 -26 9 -37 25 -133 136 -476 195 -606 157 -347 352 -664
540 -879 244 -280 465 -477 725 -650 177 -117 198 -130 389 -227 257 -131 561
-239 831 -294 105 -21 125 -25 190 -35 33 -5 69 -12 80 -14 11 -2 58 -7 105
-11 47 -4 94 -9 105 -11 27 -6 450 -6 500 0 22 2 72 7 110 11 39 3 77 8 85 10
8 2 40 6 70 9 51 6 70 9 125 20 11 2 56 11 100 20 143 30 473 129 550 165 11
6 45 20 75 32 114 47 370 180 495 259 688 431 1212 1097 1465 1861 40 122 112
401 125 489 4 25 9 54 11 64 7 38 24 172 31 251 15 152 6 685 -12 715 -1 3 -6
32 -10 65 -3 32 -8 62 -10 65 -1 3 -6 28 -9 55 -33 251 -168 660 -315 954
-453 906 -1258 1562 -2241 1825 -171 46 -263 63 -560 102 -49 6 -546 15 -551
9z m531 -278 c14 -3 52 -8 85 -12 71 -6 113 -13 175 -25 25 -6 57 -12 71 -14
65 -10 289 -71 382 -102 388 -134 729 -323 1037 -577 122 -101 364 -345 458
-464 148 -187 154 -207 22 -70 -67 70 -164 162 -214 203 -50 42 -101 85 -114
96 -28 23 -220 154 -277 188 -313 189 -734 338 -1080 384 -166 22 -242 27
-395 27 -190 0 -260 -4 -420 -27 -58 -9 -117 -17 -133 -20 -15 -2 -82 -17
-150 -34 -579 -140 -1119 -469 -1501 -915 -38 -44 -80 -93 -95 -110 -104 -120
-295 -450 -400 -687 -72 -164 -166 -511 -188 -693 -2 -21 -6 -42 -8 -45 -2 -3
-7 -53 -11 -110 -15 -201 -8 -491 16 -645 14 -92 29 -175 34 -193 3 -10 7 -28
10 -42 29 -164 145 -494 239 -675 64 -125 183 -320 234 -385 6 -8 28 -37 49
-65 188 -253 478 -519 766 -701 125 -79 387 -209 521 -259 176 -64 431 -131
577 -151 19 -2 46 -7 60 -9 72 -13 195 -20 375 -20 246 0 392 12 540 45 22 5
55 11 73 15 110 19 284 71 432 128 259 101 459 211 700 385 81 59 61 36 -66
-73 -113 -98 -117 -101 -236 -187 -481 -345 -1080 -560 -1657 -595 -184 -11
-475 -5 -581 11 -14 2 -47 7 -75 11 -544 70 -1134 321 -1567 665 -295 234
-577 555 -765 870 -182 305 -331 680 -388 975 -5 22 -9 45 -11 50 -13 57 -39
227 -51 340 -15 135 -8 583 11 695 2 14 7 48 11 75 18 140 85 414 140 573 120
344 311 692 535 972 111 139 368 395 505 504 348 277 775 491 1185 596 133 34
203 50 245 56 17 3 55 9 85 15 56 10 92 14 215 28 75 9 554 7 595 -2z m335
-581 c337 -25 677 -118 978 -267 146 -73 186 -96 314 -181 393 -261 705 -619
919 -1053 85 -171 110 -237 52 -135 -393 694 -1053 1128 -1818 1196 -109 10
-301 10 -410 1 -445 -39 -901 -226 -1254 -514 -167 -136 -369 -366 -490 -556
-42 -67 -130 -236 -165 -317 -51 -118 -114 -321 -136 -435 -36 -183 -47 -296
-47 -470 -1 -180 9 -271 58 -515 28 -138 125 -399 206 -550 112 -209 298 -455
449 -593 35 -32 75 -69 89 -82 90 -83 312 -231 457 -303 102 -52 260 -118 304
-127 19 -4 39 -11 44 -15 13 -9 201 -57 280 -71 64 -11 95 -15 215 -28 81 -9
351 -7 440 4 472 56 899 242 1260 549 55 46 250 247 250 257 0 5 5 9 11 9 28
0 -191 -268 -328 -400 -125 -121 -147 -140 -268 -231 -367 -276 -798 -454
-1246 -514 -139 -19 -212 -23 -374 -23 -823 1 -1588 373 -2104 1023 -277 348
-497 855 -546 1255 -4 30 -8 57 -10 60 -9 14 -19 212 -19 355 0 145 4 207 20
345 10 77 45 252 65 325 11 39 22 75 23 80 48 183 163 443 283 639 262 430
651 785 1107 1010 329 162 649 249 1001 272 55 4 101 7 102 8 5 4 208 -3 288
-8z m540 -600 c552 -83 1037 -361 1386 -796 76 -95 173 -250 239 -382 94 -190
164 -407 196 -608 3 -19 7 -46 10 -60 2 -14 7 -68 10 -120 3 -52 7 -101 9
-107 3 -7 0 -13 -5 -13 -6 0 -10 17 -11 38 0 20 -2 44 -3 52 -2 8 -6 39 -10
68 -3 30 -11 75 -17 100 -6 26 -12 54 -14 62 -9 44 -41 144 -67 210 -198 503
-613 875 -1138 1021 -25 7 -49 14 -55 15 -5 2 -66 12 -135 23 -99 16 -159 20
-290 16 -91 -2 -181 -6 -200 -10 -200 -36 -370 -89 -512 -161 -436 -218 -751
-595 -882 -1055 -14 -48 -30 -115 -36 -150 -6 -35 -14 -75 -17 -89 -13 -61
-12 -369 2 -460 85 -577 445 -1062 967 -1304 143 -66 326 -122 461 -141 27 -4
59 -9 70 -11 12 -3 94 -5 182 -5 456 -1 867 167 1191 486 213 209 350 437 445
740 17 52 18 40 4 -30 -5 -24 -70 -216 -87 -259 -39 -93 -145 -294 -202 -379
-262 -392 -623 -676 -1068 -838 -95 -35 -280 -84 -352 -94 -27 -3 -52 -8 -55
-10 -14 -8 -157 -18 -291 -20 -170 -2 -280 7 -426 36 -28 5 -62 12 -76 14
-114 21 -349 107 -495 181 -471 241 -828 633 -1027 1129 -58 144 -93 274 -131
490 -27 156 -23 469 10 642 8 43 16 90 19 104 22 130 109 368 196 534 117 225
218 362 405 549 258 257 623 461 985 550 134 32 165 37 315 52 39 4 71 7 73 9
10 8 339 -6 427 -19z m445 -595 c245 -49 464 -146 662 -293 87 -65 221 -193
284 -273 21 -27 41 -52 44 -55 3 -3 18 -25 34 -50 16 -25 37 -57 47 -71 57
-84 142 -285 178 -419 69 -256 73 -464 15 -785 -12 -63 -77 -244 -120 -332
-59 -120 -166 -280 -246 -367 -59 -65 -77 -83 -168 -165 -88 -80 -269 -190
-402 -245 -307 -127 -594 -160 -908 -105 -481 84 -894 380 -1135 814 -75 136
-149 345 -171 485 -2 14 -8 52 -13 85 -18 115 -11 340 14 488 54 310 227 634
457 855 100 96 127 118 228 186 175 118 381 205 570 243 187 37 459 39 630 4z
m1406 -1545 c0 -14 -3 -23 -7 -20 -6 3 -6 22 0 42 3 10 7 -2 7 -22z m-9 -118
c-3 -8 -6 -5 -6 6 -1 11 2 17 5 13 3 -3 4 -12 1 -19z m-10 -140 c-3 -7 -5 -2
-5 12 0 14 2 19 5 13 2 -7 2 -19 0 -25z m-10 -65 c-3 -10 -5 -4 -5 12 0 17 2
24 5 18 2 -7 2 -21 0 -30z m-12 -73 c-4 -23 -9 -39 -11 -37 -3 2 -2 23 2 46 4
23 9 40 11 37 3 -3 2 -23 -2 -46z"/>
</g>
</svg>
